<?xml version="1.0" encoding="UTF-8"?>
<svg version="1.1" xmlns="http://www.w3.org/2000/svg" width="2000" height="700">
<path d="M0 0 C660 0 1320 0 2000 0 C2000 231 2000 462 2000 700 C1340 700 680 700 0 700 C0 469 0 238 0 0 Z " fill="#0E1E34" transform="translate(0,0)"/>
<path d="M0 0 C12.54 0 25.08 0 38 0 C38 60.06 38 120.12 38 182 C25.46 182 12.92 182 0 182 C-0.33 176.39 -0.66 170.78 -1 165 C-1.763125 165.99 -2.52625 166.98 -3.3125 168 C-10.25383906 176.09274601 -19.44388167 182.1928411 -30 184 C-50.09246784 185.5205527 -65.11055606 183.00627871 -81 170 C-93.07436186 158.87146315 -100.83835815 142.37516931 -102 126 C-102.12923799 122.35269436 -102.13998676 118.71177495 -102.125 115.0625 C-102.12886719 114.12470703 -102.13273437 113.18691406 -102.13671875 112.22070312 C-102.11009267 93.06323846 -96.18385988 76.04685168 -82.8984375 61.76953125 C-69.59686079 49.37114802 -53.97876708 45.20531766 -36.21875 45.69140625 C-21.52025743 46.49211527 -11.10188344 53.89811656 -1 64 C-0.67 42.88 -0.34 21.76 0 0 Z " fill="#1DE4D5" transform="translate(1256,185)"/>
<path d="M0 0 C1.010625 0.721875 2.02125 1.44375 3.0625 2.1875 C13.91312152 11.59342121 22.26301132 26.75377353 24 41 C24.22035165 45.08414149 24.29092348 49.16032414 24.3125 53.25 C24.32095947 54.7954248 24.32095947 54.7954248 24.32958984 56.37207031 C24.18928452 71.07321485 19.17670477 84.51469026 10 96 C9.41605469 96.75925781 8.83210938 97.51851563 8.23046875 98.30078125 C-3.09587963 112.1070038 -20.46787469 120.56096773 -38 123 C-58.64788465 124.82300097 -77.79614393 120.97120806 -94.4375 108 C-95.97366561 106.68436061 -97.49597626 105.35226639 -99 104 C-99.62261719 103.47019531 -100.24523437 102.94039063 -100.88671875 102.39453125 C-112.15294458 92.14099988 -119.12530484 75.82013835 -120.1550293 60.7277832 C-121.14416513 39.31146288 -116.89558974 23.38645341 -102.6875 6.6875 C-75.69183023 -21.83361002 -30.47808547 -24.01837564 0 0 Z " fill="#1DE4D4" transform="translate(1108,247)"/>
<path d="M0 0 C11.88 0 23.76 0 36 0 C39.25204047 6.50408094 42.3308907 12.89965582 45.1171875 19.58984375 C45.49077896 20.47872787 45.86437042 21.367612 46.24928284 22.28343201 C47.04683988 24.18182388 47.84293404 26.08083092 48.63766479 27.98040771 C50.76048597 33.05371209 52.89468998 38.12222929 55.02734375 43.19140625 C55.45449173 44.20750977 55.88163971 45.22361328 56.32173157 46.27050781 C59.98876646 54.98855532 63.70183848 63.68618169 67.4375 72.375 C68.6462468 75.18862463 69.8545182 78.0024531 71.0625 80.81640625 C71.37083267 81.53465576 71.67916534 82.25290527 71.99684143 82.99291992 C82.47295513 107.4109368 92.85550104 131.86989063 103.18460083 156.35043335 C103.89129256 158.02500794 104.59854196 159.6993473 105.30636597 161.3734436 C106.27377118 163.66226313 107.23883241 165.95205521 108.203125 168.2421875 C108.48956375 168.91891006 108.7760025 169.59563263 109.07112122 170.29286194 C111 174.88533854 111 174.88533854 111 176 C97.47 176 83.94 176 70 176 C68.081875 171.235625 66.16375 166.47125 64.1875 161.5625 C63.58832764 160.0782251 62.98915527 158.5939502 62.37182617 157.06469727 C61.89205322 155.86901123 61.41228027 154.6733252 60.91796875 153.44140625 C60.43094482 152.23170166 59.9439209 151.02199707 59.44213867 149.77563477 C57.83338584 145.56379077 56.42575298 141.27725893 55 137 C30.58 137.33 6.16 137.66 -19 138 C-23.89225623 149.75724526 -23.89225623 149.75724526 -28.78295898 161.51513672 C-29.39561415 162.98667714 -30.00832211 164.45819558 -30.62109375 165.9296875 C-30.93985474 166.69676025 -31.25861572 167.46383301 -31.58703613 168.25415039 C-33.8859282 173.7718564 -33.8859282 173.7718564 -35 176 C-47.87 176 -60.74 176 -74 176 C-70.62512803 165.87538409 -70.62512803 165.87538409 -69.14086914 162.40966797 C-68.80442886 161.6191806 -68.46798859 160.82869324 -68.12135315 160.01425171 C-67.76290817 159.18197052 -67.4044632 158.34968933 -67.03515625 157.4921875 C-66.65016464 156.59021637 -66.26517303 155.68824524 -65.86851501 154.75894165 C-64.60309326 151.79622648 -63.33276754 148.83564035 -62.0625 145.875 C-61.16433748 143.77424929 -60.26655792 141.6733348 -59.36914062 139.57226562 C-57.50555072 135.20997656 -55.64031942 130.84839488 -53.77392578 126.48730469 C-49.91274679 117.46170009 -46.07163197 108.42757352 -42.23040771 99.39346313 C-40.16622464 94.53926923 -38.10064427 89.68567001 -36.03515625 84.83203125 C-35.62442871 83.86680038 -35.21370117 82.90156952 -34.79052734 81.90708923 C-32.20067129 75.82090855 -29.61018183 69.73499779 -27.01931763 63.64924622 C-17.99089088 42.44206607 -8.9679146 21.23285663 0 0 Z " fill="#1DE4D4" transform="translate(616,191)"/>
<path d="M0 0 C14.67064608 10.54388206 22.46328176 25.64096919 26.52734375 42.87109375 C27.77734375 50.99609375 27.77734375 50.99609375 27.77734375 71.99609375 C-2.91265625 71.99609375 -33.60265625 71.99609375 -65.22265625 71.99609375 C-60.56006793 84.81821164 -57.69267235 90.04124604 -46.03515625 96.140625 C-36.05461567 99.17637276 -23.16704094 98.16383037 -13.921875 93.57421875 C-9.26021023 90.84873023 -4.68237036 88.04239453 -0.22265625 84.99609375 C6.77734375 90.99609375 13.77734375 96.99609375 20.77734375 102.99609375 C15.19342984 114.63667381 2.35947627 121.50506277 -9.22265625 125.99609375 C-28.17064255 132.31208918 -49.73329766 130.35779707 -67.53515625 121.74609375 C-84.92334579 112.50372274 -94.46972513 99.02537747 -101.3515625 81.046875 C-106.74386458 62.16172735 -103.66808531 40.54065284 -94.87890625 23.37109375 C-85.67876181 7.01528142 -71.39838081 -3.67286148 -53.6171875 -9.10546875 C-35.1306694 -13.5358509 -15.92966354 -9.9426759 0 0 Z " fill="#1DE4D4" transform="translate(1425.22265625,241.00390625)"/>
<path d="M0 0 C0.88945313 0.81210938 0.88945313 0.81210938 1.796875 1.640625 C2.55484375 2.28515625 3.3128125 2.9296875 4.09375 3.59375 C5.796875 5.640625 5.796875 5.640625 5.8359375 7.59375 C4.40002283 10.42239394 2.47116371 12.20942665 0.171875 14.390625 C-3.62256756 18.06057087 -7.17048024 21.78627272 -10.53515625 25.8515625 C-12.57565932 28.04020513 -14.83631059 29.81628927 -17.203125 31.640625 C-17.89277344 31.03734375 -18.58242188 30.4340625 -19.29296875 29.8125 C-30.23756556 20.50433811 -37.96187405 17.37586865 -52.23242188 18.40869141 C-59.32481085 19.24340022 -65.30173763 22.51644729 -70.203125 27.640625 C-76.19226068 35.97646529 -78.59541895 43.91191326 -78.515625 54.078125 C-78.51071045 54.82312256 -78.5057959 55.56812012 -78.50073242 56.33569336 C-78.38257861 61.88165151 -77.74460045 66.63932792 -75.203125 71.640625 C-74.67525391 72.68089844 -74.67525391 72.68089844 -74.13671875 73.7421875 C-70.1479157 80.77195922 -64.42363935 85.88279948 -56.91796875 88.94921875 C-48.02041807 91.21521367 -37.53469019 90.62589035 -29.203125 86.640625 C-26.54592679 84.98769141 -24.02604362 83.24269259 -21.52734375 81.359375 C-19.16662938 79.61363664 -16.72866501 78.13421548 -14.203125 76.640625 C-11.36348725 79.40598651 -8.53389033 82.1811974 -5.71313477 84.96582031 C-4.2807478 86.37573941 -2.84060305 87.77776294 -1.40039062 89.1796875 C-0.05170898 90.51386719 -0.05170898 90.51386719 1.32421875 91.875 C2.57319946 93.10041504 2.57319946 93.10041504 3.84741211 94.35058594 C5.73788871 96.57133365 6.42811982 97.79349198 6.796875 100.640625 C-9.29296898 116.32266187 -25.79873544 123.953125 -48.48657227 123.953125 C-67.41290748 123.68113717 -84.12910773 116.9046629 -97.546875 103.49609375 C-112.59957385 87.31444249 -118.05472309 68.53035554 -117.32617188 46.85595703 C-116.5102487 32.166102 -108.99005703 17.44974771 -99.203125 6.640625 C-98.62304688 5.96902344 -98.04296875 5.29742187 -97.4453125 4.60546875 C-72.87304837 -22.0744582 -27.17200635 -22.38973323 0 0 Z " fill="#1DE4D4" transform="translate(962.203125,246.359375)"/>
<path d="M0 0 C1.32 0 2.64 0 4 0 C5.03565785 1.30582947 6.03126968 2.64377755 7 4 C8.63631892 5.04892238 10.30485863 6.04906703 12 7 C15.85714286 9.57142857 15.85714286 9.57142857 17 13 C17.99 13.495 17.99 13.495 19 14 C20.74839516 16.65756064 21.99127482 18.97382445 23 22 C24.485 22.495 24.485 22.495 26 23 C27.03013277 24.64821244 28.02065076 26.32111559 29 28 C30.15260323 29.49015131 31.3207272 30.96836393 32.5 32.4375 C37.80532503 39.24264266 39.51036403 44.45669657 40 53 C40.66 53 41.32 53 42 53 C43.93254528 64.5488906 44.41885755 77.71970165 41 89 C40.58041016 90.46953125 40.58041016 90.46953125 40.15234375 91.96875 C38.33602859 97.67506807 38.33602859 97.67506807 37 100 C35.34800091 100.70222591 33.68142368 101.37148061 32 102 C30.62032476 105.53514293 30.62032476 105.53514293 30 109 C26.535 109.495 26.535 109.495 23 110 C22.94465088 109.410979 22.88930176 108.82195801 22.83227539 108.21508789 C22.57646027 105.49748485 22.31948622 102.77999254 22.0625 100.0625 C21.97548828 99.13630859 21.88847656 98.21011719 21.79882812 97.25585938 C21.62345038 95.40464985 21.44329548 93.55388651 21.25830078 91.70361328 C21.08865302 89.92792401 20.94049385 88.15002493 20.81591797 86.37060547 C20.64531191 84.23653324 20.33389728 82.11468279 20 80 C18.515 79.01 18.515 79.01 17 78 C16.96261719 78.65226562 16.92523437 79.30453125 16.88671875 79.9765625 C16.20584912 89.02812344 12.6455761 94.70683694 7.77734375 102.23046875 C6.19860029 104.69053273 4.68857153 107.17977516 3.1875 109.6875 C2.465625 110.780625 1.74375 111.87375 1 113 C0.34 113 -0.32 113 -1 113 C-1.268125 113.78375 -1.53625 114.5675 -1.8125 115.375 C-3 118 -3 118 -6 120 C-6.495 121.485 -6.495 121.485 -7 123 C-7.66 123 -8.32 123 -9 123 C-9.12375 123.7425 -9.2475 124.485 -9.375 125.25 C-9.95486701 127.80141485 -10.73708739 129.7267573 -12 132 C-12.99 132 -13.98 132 -15 132 C-15.99607493 137.8170776 -16.18328877 143.47927631 -16.1875 149.375 C-16.19974609 150.26960937 -16.21199219 151.16421875 -16.22460938 152.0859375 C-16.23755818 158.0251217 -15.48227019 163.24668248 -14 169 C-13.01 169 -12.02 169 -11 169 C-9.5393715 171.64738916 -9 172.89448334 -9 176 C-8.34 176 -7.68 176 -7 176 C-5.74335022 178.90600261 -5 180.79604584 -5 184 C-6.41623216 184.05447047 -7.83308191 184.09300508 -9.25 184.125 C-10.03890625 184.14820313 -10.8278125 184.17140625 -11.640625 184.1953125 C-14.23589072 183.98047262 -15.7307218 183.2276423 -18 182 C-19.99110401 181.61709538 -21.99100513 181.27395385 -24 181 C-24 180.34 -24 179.68 -24 179 C-24.73734375 178.88527344 -25.4746875 178.77054688 -26.234375 178.65234375 C-37.65002207 175.95966994 -45.86666042 164.325936 -51.7109375 154.91015625 C-52.92786151 152.9666611 -52.92786151 152.9666611 -54.5625 151.48046875 C-56.19017024 149.80414533 -56.82912086 148.43648116 -57.625 146.25 C-57.98464844 145.29867187 -57.98464844 145.29867187 -58.3515625 144.328125 C-60.02804981 138.30892961 -60.18226892 132.26132407 -60.1875 126.0625 C-60.19974609 125.30259766 -60.21199219 124.54269531 -60.22460938 123.75976562 C-60.25236617 112.92536243 -56.88849352 103.34968912 -50 95 C-49.16624848 93.53270702 -48.3556488 92.05213259 -47.5625 90.5625 C-44.31393027 84.59188712 -41.06999759 80.33849867 -35 77 C-30.94099674 74.11597137 -27.89399998 70.69632794 -24.68359375 66.93359375 C-23 65 -23 65 -20.5625 62.625 C-14.81932991 56.74175259 -9.7462093 50.80501592 -7 43 C-6.43946657 41.52008698 -5.87694298 40.04092633 -5.3125 38.5625 C-4.879375 37.386875 -4.44625 36.21125 -4 35 C-3.34 35 -2.68 35 -2 35 C-0.91165825 27.68341683 -0.67542038 20.38723272 -0.4375 13 C-0.37272461 11.12248047 -0.37272461 11.12248047 -0.30664062 9.20703125 C-0.20121983 6.13811477 -0.09909658 3.06912611 0 0 Z " fill="#EC662A" transform="translate(1016,7)"/>
<path d="M0 0 C3.95444184 2.33168069 7.20754855 4.76988038 10.125 8.3125 C10.455 5.0125 10.785 1.7125 11.125 -1.6875 C19.045 -1.6875 26.965 -1.6875 35.125 -1.6875 C35.19301946 8.16206727 35.24795595 18.01147623 35.28043652 27.86122608 C35.29603259 32.4358124 35.31715895 37.01022844 35.35131836 41.5847168 C35.38412947 46.00677328 35.40189847 50.42866689 35.40963173 54.8508358 C35.41513647 56.53037768 35.42588492 58.20991156 35.44219017 59.88938332 C35.56799574 73.39578135 34.8009763 86.63987075 25.41015625 97.25 C13.55678078 108.49737468 -1.58986675 109.89446672 -17.15234375 109.5625 C-28.15420932 109.12021395 -38.96589432 106.10111088 -48.875 101.3125 C-49.205 100.6525 -49.535 99.9925 -49.875 99.3125 C-49.25415039 97.52490234 -49.25415039 97.52490234 -48.22265625 95.3984375 C-47.85849609 94.63789062 -47.49433594 93.87734375 -47.11914062 93.09375 C-46.72919922 92.2996875 -46.33925781 91.505625 -45.9375 90.6875 C-45.55142578 89.88570312 -45.16535156 89.08390625 -44.76757812 88.2578125 C-43.81038427 86.27252154 -42.84596525 84.29108263 -41.875 82.3125 C-39.04829441 83.21541891 -36.30413915 84.10871469 -33.62109375 85.3828125 C-27.20422738 88.31437582 -21.1372872 88.74358848 -14.1875 88.8125 C-13.29667725 88.83070801 -12.40585449 88.84891602 -11.48803711 88.86767578 C-5.47514078 88.81286564 -0.89490492 87.70829578 4.125 84.3125 C8.73943941 79.57662797 10.23162864 75.52183105 10.25 69 C10.21806101 67.43727089 10.17959773 65.87460161 10.125 64.3125 C9.75890625 64.75980469 9.3928125 65.20710937 9.015625 65.66796875 C3.00096177 72.38434269 -3.83487352 75.69318376 -12.78515625 76.79296875 C-23.85965706 77.40068331 -33.01920217 74.70848945 -41.75 67.75 C-48.9968168 60.80568191 -53.64030587 50.31582655 -54.2109375 40.296875 C-54.47618806 27.84321539 -52.55850627 17.787309 -43.875 8.3125 C-32.60839906 -3.11315884 -14.77920812 -7.19586912 0 0 Z " fill="#FBFCFC" transform="translate(1049.875,515.6875)"/>
<path d="M0 0 C10.52833301 6.46807902 16.61956875 15.13386159 20.00244141 26.92041016 C20.98567105 31.24237644 21.14588903 35.43566952 21.11328125 39.85546875 C21.10756104 40.7671582 21.10184082 41.67884766 21.09594727 42.61816406 C20.77958757 54.69735239 17.04140666 64.75776134 8.61328125 73.60546875 C7.81277344 74.46591797 7.81277344 74.46591797 6.99609375 75.34375 C-0.23033512 82.31085726 -10.9235439 84.97063335 -20.7421875 84.8125 C-29.26021901 84.14565263 -35.88861422 79.95609054 -42.38671875 74.60546875 C-42.88171875 73.61546875 -42.88171875 73.61546875 -43.38671875 72.60546875 C-43.71671875 84.15546875 -44.04671875 95.70546875 -44.38671875 107.60546875 C-52.30671875 107.60546875 -60.22671875 107.60546875 -68.38671875 107.60546875 C-68.38671875 71.30546875 -68.38671875 35.00546875 -68.38671875 -2.39453125 C-60.46671875 -2.39453125 -52.54671875 -2.39453125 -44.38671875 -2.39453125 C-44.05671875 1.23546875 -43.72671875 4.86546875 -43.38671875 8.60546875 C-42.91234375 7.90421875 -42.43796875 7.20296875 -41.94921875 6.48046875 C-31.36556365 -5.393876 -13.96715383 -6.89664442 0 0 Z " fill="#FCFDFD" transform="translate(1583.38671875,516.39453125)"/>
<path d="M0 0 C3.23651805 2.5193705 5.57825204 5.29118612 8.02734375 8.578125 C8.84525391 7.78148437 8.84525391 7.78148437 9.6796875 6.96875 C18.09545661 -0.9147397 24.10493464 -3.73674117 35.58984375 -3.921875 C36.39341309 -3.94056641 37.19698242 -3.95925781 38.02490234 -3.97851562 C45.45845311 -3.89925693 51.57615054 -1.47552453 56.83984375 3.890625 C62.77437284 10.2036662 64.15785475 17.45313748 64.14086914 25.92895508 C64.14079361 27.1898848 64.14071808 28.45081451 64.14064026 29.74995422 C64.13553444 31.11585531 64.13031845 32.48175598 64.125 33.84765625 C64.12313345 35.25298512 64.12171067 36.65831465 64.12071228 38.06364441 C64.11690575 41.75106625 64.10709149 45.4384483 64.0960083 49.12585449 C64.085754 52.89314231 64.08120607 56.6604366 64.07617188 60.42773438 C64.06546745 67.8112181 64.04788585 75.19466089 64.02734375 82.578125 C56.10734375 82.578125 48.18734375 82.578125 40.02734375 82.578125 C40.0015625 78.76121094 39.97578125 74.94429687 39.94921875 71.01171875 C39.91077912 67.30485741 39.86562479 63.59813426 39.81982422 59.89135742 C39.79164201 57.32013575 39.77041388 54.74882788 39.75634766 52.17749023 C39.73488117 48.47595174 39.6882081 44.7754466 39.63671875 41.07421875 C39.63549011 39.92916367 39.63426147 38.78410858 39.63299561 37.60435486 C39.51368057 31.0658237 38.96089692 26.88283933 35.02734375 21.578125 C30.73431906 18.41530477 25.10498364 18.85799662 20.02734375 19.578125 C16.59977161 21.21416535 14.56474629 23.46943809 12.89492798 26.91435242 C11.96961889 29.75535954 11.75119745 32.02900805 11.70849609 35.01098633 C11.6886264 36.07170853 11.66875671 37.13243073 11.64828491 38.22529602 C11.6367337 39.3587999 11.6251825 40.49230377 11.61328125 41.66015625 C11.5939151 42.82947189 11.57454895 43.99878754 11.55459595 45.20353699 C11.4948918 48.93249249 11.44845078 52.66147901 11.40234375 56.390625 C11.3641556 58.9212373 11.32510338 61.45183673 11.28515625 63.98242188 C11.18757409 70.18092197 11.10793076 76.37928742 11.02734375 82.578125 C3.10734375 82.578125 -4.81265625 82.578125 -12.97265625 82.578125 C-12.9984375 78.67742187 -13.02421875 74.77671875 -13.05078125 70.7578125 C-13.08920694 66.97486185 -13.13436577 63.19204726 -13.18017578 59.40917969 C-13.20838003 56.78261829 -13.22959721 54.1559721 -13.24365234 51.52929688 C-13.26508825 47.75086066 -13.31174573 43.97344337 -13.36328125 40.1953125 C-13.36450989 39.02322235 -13.36573853 37.8511322 -13.36700439 36.64352417 C-13.47948395 30.36494751 -13.63800412 26.28991746 -17.97265625 21.578125 C-22.63806443 18.46785288 -27.5096103 18.97276045 -32.97265625 19.578125 C-36.70556726 21.66855517 -38.37556524 23.6801237 -39.97265625 27.578125 C-40.2979031 30.20269819 -40.2979031 30.20269819 -40.29150391 33.08105469 C-40.3113736 34.18189392 -40.33124329 35.28273315 -40.35171509 36.41693115 C-40.3690419 38.19055023 -40.3690419 38.19055023 -40.38671875 40 C-40.4060849 41.21512268 -40.42545105 42.43024536 -40.44540405 43.68218994 C-40.50519431 47.56409684 -40.55158371 51.4460334 -40.59765625 55.328125 C-40.63583647 57.95964837 -40.67488823 60.59115924 -40.71484375 63.22265625 C-40.81253598 69.67441427 -40.89211115 76.12603883 -40.97265625 82.578125 C-49.22265625 82.578125 -57.47265625 82.578125 -65.97265625 82.578125 C-65.97265625 54.528125 -65.97265625 26.478125 -65.97265625 -2.421875 C-57.72265625 -2.421875 -49.47265625 -2.421875 -40.97265625 -2.421875 C-40.64265625 0.878125 -40.31265625 4.178125 -39.97265625 7.578125 C-38.98265625 6.505625 -37.99265625 5.433125 -36.97265625 4.328125 C-27.18879636 -5.2043709 -12.01295082 -7.14616562 0 0 Z " fill="#FBFBFC" transform="translate(1429.97265625,516.421875)"/>
<path d="M0 0 C1.89816517 1.64264294 3.74399589 3.31253891 5.546875 5.05859375 C0.98179821 11.46760352 -4.12229968 17.27760985 -9.453125 23.05859375 C-12.10388155 21.4700889 -14.75130039 19.87699225 -17.390625 18.26953125 C-18.40125 17.66367187 -19.411875 17.0578125 -20.453125 16.43359375 C-21.46375 15.82257812 -22.474375 15.2115625 -23.515625 14.58203125 C-30.68528677 10.86372262 -40.33471458 10.79797635 -48.0859375 12.70703125 C-57.24881859 16.4424218 -63.53105687 23.07432141 -67.453125 32.05859375 C-71.40908798 42.3189359 -70.19554031 52.28984315 -65.859375 62.21484375 C-61.8946832 70.23233161 -57.51779837 73.98525025 -49.453125 78.05859375 C-41.12466385 80.83474747 -29.57849379 80.15972991 -21.66796875 76.4140625 C-18.32971316 74.37107363 -15.32245326 72.00559965 -12.36328125 69.44921875 C-10.453125 68.05859375 -10.453125 68.05859375 -7.453125 68.05859375 C-5.83984375 69.59765625 -5.83984375 69.59765625 -4.140625 71.68359375 C-1.86956732 74.42435846 0.41412336 76.91518317 3.046875 79.30859375 C5.546875 82.05859375 5.546875 82.05859375 5.5078125 83.953125 C1.73288325 92.22420981 -9.41851377 97.00208835 -17.453125 100.05859375 C-18.525625 100.47109375 -19.598125 100.88359375 -20.703125 101.30859375 C-34.02174459 104.94094455 -48.74196399 104.26723775 -61.453125 99.05859375 C-62.31035156 98.73117187 -63.16757813 98.40375 -64.05078125 98.06640625 C-77.97413184 92.02045053 -87.84813455 79.45092706 -93.390625 65.62109375 C-98.31230746 49.11898198 -96.36958999 31.43464962 -88.640625 16.24609375 C-80.54199287 2.39422543 -67.83022187 -6.55912928 -52.453125 -10.94140625 C-34.06409622 -14.23274512 -15.00434759 -11.8744598 0 0 Z " fill="#FBFCFC" transform="translate(1247.453125,497.94140625)"/>
<path d="M0 0 C8.36753345 7.00537684 12.88040738 14.50036594 14.03186035 25.55651855 C14.14630604 29.08142027 14.13845151 32.58318744 14.078125 36.109375 C14.07246521 37.37976624 14.06680542 38.65015747 14.06097412 39.95904541 C14.04253764 43.29337743 14.00677521 46.62655564 13.9621582 49.96057129 C13.92081642 53.37986425 13.9028812 56.79927773 13.8828125 60.21875 C13.83896956 66.89618526 13.77005834 73.57293575 13.6875 80.25 C5.7675 80.25 -2.1525 80.25 -10.3125 80.25 C-10.8075 76.785 -10.8075 76.785 -11.3125 73.25 C-11.84617187 73.64832031 -12.37984375 74.04664063 -12.9296875 74.45703125 C-21.70987516 80.70038269 -30.47849764 83.58155336 -41.3125 82.25 C-50.35603839 80.17443381 -57.7795121 75.75655407 -62.8125 67.8125 C-65.80603572 60.93944939 -65.59384792 51.51919145 -63.46484375 44.42578125 C-59.88268346 37.27360359 -53.963835 32.97399027 -46.5 30.4375 C-45.10729929 30.03078209 -43.71173978 29.63361801 -42.3125 29.25 C-40.8275 28.755 -40.8275 28.755 -39.3125 28.25 C-29.27045091 27.71932261 -19.86671526 27.71451946 -10.3125 31.25 C-10.57766291 25.33523115 -10.57766291 25.33523115 -13.5625 20.375 C-20.25300101 15.2050674 -27.16622594 15.68108005 -35.3125 16.25 C-39.07023868 16.8974988 -42.74599332 17.68786473 -46.44921875 18.59375 C-49.3125 19.25 -49.3125 19.25 -52.3125 19.25 C-53.9625 13.31 -55.6125 7.37 -57.3125 1.25 C-39.1532495 -7.52697108 -18.23730878 -9.63480464 0 0 Z " fill="#FAFAFB" transform="translate(1330.3125,518.75)"/>
<path d="M0 0 C1.25937378 -0.00821777 1.25937378 -0.00821777 2.54418945 -0.01660156 C12.63504204 0.09903006 22.163029 2.62789201 30.0234375 9.21875 C38.06911056 17.47379002 40.2061183 27.25382875 40.20318604 38.51507568 C40.18254089 39.72181946 40.16189575 40.92856323 40.140625 42.171875 C40.13496521 43.44226624 40.12930542 44.71265747 40.12347412 46.02154541 C40.10503764 49.35587743 40.06927521 52.68905564 40.0246582 56.02307129 C39.98331642 59.44236425 39.9653812 62.86177773 39.9453125 66.28125 C39.90146956 72.95868526 39.83255834 79.63543575 39.75 86.3125 C31.83 86.3125 23.91 86.3125 15.75 86.3125 C15.255 82.8475 15.255 82.8475 14.75 79.3125 C14.21632813 79.71082031 13.68265625 80.10914063 13.1328125 80.51953125 C4.35262484 86.76288269 -4.41599764 89.64405336 -15.25 88.3125 C-24.29353839 86.23693381 -31.7170121 81.81905407 -36.75 73.875 C-39.74353572 67.00194939 -39.53134792 57.58169145 -37.40234375 50.48828125 C-33.82018346 43.33610359 -27.901335 39.03649027 -20.4375 36.5 C-19.04479929 36.09328209 -17.64923978 35.69611801 -16.25 35.3125 C-14.765 34.8175 -14.765 34.8175 -13.25 34.3125 C-3.20795091 33.78182261 6.19578474 33.77701946 15.75 37.3125 C15.48483709 31.39773115 15.48483709 31.39773115 12.5 26.4375 C5.80949899 21.2675674 -1.10372594 21.74358005 -9.25 22.3125 C-13.00773868 22.9599988 -16.68349332 23.75036473 -20.38671875 24.65625 C-23.25 25.3125 -23.25 25.3125 -26.25 25.3125 C-27.9 19.3725 -29.55 13.4325 -31.25 7.3125 C-20.89645548 2.30828682 -11.48923338 0.0547658 0 0 Z " fill="#FAFAFB" transform="translate(628.25,512.6875)"/>
<path d="M0 0 C2.19140625 1.11328125 2.19140625 1.11328125 4.1875 2.375 C4.89777344 2.82230469 5.60804688 3.26960937 6.33984375 3.73046875 C16.10361356 10.51237963 20.57381064 19.0317775 24.5 30.0625 C25.56655814 36.75272833 25.1875 43.60028957 25.1875 50.375 C5.7175 50.375 -13.7525 50.375 -33.8125 50.375 C-30.40255288 58.56299843 -30.40255288 58.56299843 -24.16015625 64.51171875 C-17.5674764 66.93598205 -8.07397897 66.74490081 -1.61328125 64.03125 C0.98147121 62.44033168 0.98147121 62.44033168 3.20703125 60.6875 C5.1875 59.375 5.1875 59.375 9.1875 59.375 C11.24976774 60.98794684 13.07122373 62.56260572 14.9375 64.375 C15.44410156 64.85195313 15.95070313 65.32890625 16.47265625 65.8203125 C17.71930766 66.99639874 18.95454609 68.18456174 20.1875 69.375 C18.03276794 75.77422939 13.72509735 78.54356258 7.87109375 81.57421875 C5.66081681 82.58025005 3.45908188 83.51632644 1.1875 84.375 C0.28515625 84.73335937 -0.6171875 85.09171875 -1.546875 85.4609375 C-12.18627361 88.43895099 -24.98117359 87.24043015 -34.8125 82.375 C-47.51502908 75.13474172 -53.26384916 66.02095251 -57.8125 52.375 C-58.89138141 40.7517599 -58.86651627 29.64120219 -52.8125 19.375 C-52.36648438 18.55902344 -51.92046875 17.74304688 -51.4609375 16.90234375 C-41.3289492 -0.05034059 -18.39465788 -6.97030275 0 0 Z " fill="#FBFCFC" transform="translate(551.8125,514.625)"/>
<path d="M0 0 C1.14662109 -0.0299707 1.14662109 -0.0299707 2.31640625 -0.06054688 C9.35469775 -0.05457209 14.44434538 2.19323102 19.8125 6.6875 C28.52491886 17.04821431 29.42614925 26.30533671 29.3203125 39.5625 C29.3165756 40.91869904 29.31373183 42.2749008 29.31173706 43.63110352 C29.3041538 47.17551315 29.28455195 50.71975508 29.2623291 54.26409912 C29.24175534 57.89088677 29.23271085 61.51770189 29.22265625 65.14453125 C29.20130019 72.24226208 29.1661623 79.33985234 29.125 86.4375 C20.875 86.4375 12.625 86.4375 4.125 86.4375 C4.09921875 82.53679687 4.0734375 78.63609375 4.046875 74.6171875 C4.00844931 70.83423685 3.96329048 67.05142226 3.91748047 63.26855469 C3.88927622 60.64199329 3.86805904 58.0153471 3.85400391 55.38867188 C3.832568 51.61023566 3.78591052 47.83281837 3.734375 44.0546875 C3.73314636 42.88259735 3.73191772 41.7105072 3.73065186 40.50289917 C3.61807412 34.21884237 3.42216665 30.18168903 -0.875 25.4375 C-5.44110276 22.16243669 -11.53082294 22.7137332 -16.875 23.4375 C-20.38288932 25.96318031 -22.23232228 28.49553995 -23.875 32.4375 C-24.20002423 35.02139736 -24.20002423 35.02139736 -24.19384766 37.84863281 C-24.21371735 38.92945129 -24.23358704 40.01026978 -24.25405884 41.12384033 C-24.27138565 42.86464874 -24.27138565 42.86464874 -24.2890625 44.640625 C-24.30842865 45.83355164 -24.3277948 47.02647827 -24.3477478 48.2555542 C-24.40753267 52.06613004 -24.45392527 55.8767361 -24.5 59.6875 C-24.53818072 62.27084652 -24.5772325 64.85418032 -24.6171875 67.4375 C-24.71487286 73.77076722 -24.79445219 80.10389875 -24.875 86.4375 C-32.795 86.4375 -40.715 86.4375 -48.875 86.4375 C-48.875 58.3875 -48.875 30.3375 -48.875 1.4375 C-40.955 1.4375 -33.035 1.4375 -24.875 1.4375 C-24.545 4.7375 -24.215 8.0375 -23.875 11.4375 C-23.29492188 10.89480469 -22.71484375 10.35210938 -22.1171875 9.79296875 C-21.33601562 9.07753906 -20.55484375 8.36210938 -19.75 7.625 C-18.98429688 6.91730469 -18.21859375 6.20960938 -17.4296875 5.48046875 C-11.7020973 0.90014814 -7.1125217 -0.06530696 0 0 Z " fill="#FBFBFB" transform="translate(803.875,512.5625)"/>
<path d="M0 0 C0.79696289 0.00572021 1.59392578 0.01144043 2.41503906 0.01733398 C10.70863185 0.26816872 16.76702832 2.63717181 22.625 8.625 C29.29656573 17.69846641 29.81451452 27.45160393 29.640625 38.35546875 C29.6331448 39.75221437 29.6274603 41.14897063 29.62347412 42.54573059 C29.6083572 46.18403193 29.56920077 49.82167266 29.5246582 53.4597168 C29.48340007 57.18724639 29.46539862 60.91488497 29.4453125 64.64257812 C29.40268854 71.92871841 29.33245822 79.21418169 29.25 86.5 C21.33 86.5 13.41 86.5 5.25 86.5 C5.21261719 82.74367188 5.17523437 78.98734375 5.13671875 75.1171875 C5.09048828 71.47324854 5.03925997 67.82941169 4.98754883 64.18554688 C4.95432486 61.65598775 4.92628511 59.12635495 4.90356445 56.59667969 C4.86997296 52.95736333 4.81765246 49.31872066 4.76171875 45.6796875 C4.75532883 44.55134491 4.7489389 43.42300232 4.74235535 42.26046753 C4.63562683 36.54154583 4.34851427 32.48915935 1.25 27.5 C1.25 26.84 1.25 26.18 1.25 25.5 C-2.55528391 23.73725819 -5.5660526 23.22865333 -9.75 23.25 C-10.760625 23.24484375 -11.77125 23.2396875 -12.8125 23.234375 C-15.86615741 23.5105036 -18.03211703 24.0928691 -20.75 25.5 C-22.06068333 27.94288628 -22.06068333 27.94288628 -22.75 30.5 C-23.08 31.16 -23.41 31.82 -23.75 32.5 C-23.86917168 34.22527121 -23.92717326 35.95492898 -23.95532227 37.68408203 C-23.97526749 38.76505157 -23.99521271 39.84602112 -24.01576233 40.95974731 C-24.04083107 42.71603958 -24.04083107 42.71603958 -24.06640625 44.5078125 C-24.08718735 45.70356903 -24.10796844 46.89932556 -24.12937927 48.13131714 C-24.19492289 51.96248464 -24.25378218 55.79372238 -24.3125 59.625 C-24.35568063 62.21745527 -24.39929477 64.80990336 -24.44335938 67.40234375 C-24.55142733 73.76815814 -24.65046544 80.1340235 -24.75 86.5 C-32.67 86.5 -40.59 86.5 -48.75 86.5 C-48.75 58.45 -48.75 30.4 -48.75 1.5 C-40.83 1.5 -32.91 1.5 -24.75 1.5 C-24.42 4.8 -24.09 8.1 -23.75 11.5 C-23.16992188 10.95730469 -22.58984375 10.41460938 -21.9921875 9.85546875 C-21.21101562 9.14003906 -20.42984375 8.42460938 -19.625 7.6875 C-18.85929688 6.97980469 -18.09359375 6.27210938 -17.3046875 5.54296875 C-11.65683801 1.02641633 -7.0330463 -0.05824011 0 0 Z " fill="#FCFDFD" transform="translate(949.75,512.5)"/>
<path d="M0 0 C10.16499672 6.10182951 15.5022271 14.19418129 19.25 25.4375 C19.95140009 39.18820417 18.56937009 51.24649595 9.01953125 61.8359375 C0.76644395 69.30561916 -9.08893325 71.01882408 -19.83203125 70.75 C-24.93177093 70.3432411 -28.47892284 69.18502659 -32.75 66.4375 C-33.44480469 66.01339844 -34.13960937 65.58929688 -34.85546875 65.15234375 C-43.38401932 59.40797291 -48.511255 50.37350311 -50.75 40.4375 C-51.93246224 29.16791087 -50.49055777 19.52389513 -44 10.125 C-33.35825099 -2.9560416 -15.42621156 -7.29380926 0 0 Z " fill="#0E2035" transform="translate(1075.75,266.5625)"/>
<path d="M0 0 C8.25 0 16.5 0 25 0 C25 29.37 25 58.74 25 89 C43.15 89 61.3 89 80 89 C80 96.26 80 103.52 80 111 C53.6 111 27.2 111 0 111 C0 74.37 0 37.74 0 0 Z " fill="#FBFBFC" transform="translate(402,488)"/>
<path d="M0 0 C8.00736028 4.13737069 12.76007474 11.51138881 16.1015625 19.69921875 C19.98406618 32.12685905 18.65068414 44.05637665 12.6796875 55.5390625 C8.58029957 62.23696955 2.59166014 67.67225022 -4.828125 70.53125 C-12.91355747 72.27630737 -22.67704992 72.15986093 -30 68 C-37.89671811 62.39393294 -43.99606835 55.20668588 -46.62890625 45.73828125 C-48.40887717 32.60396953 -47.8650703 20.72310687 -40.30859375 9.484375 C-29.86367558 -3.68625251 -15.11898119 -6.02918276 0 0 Z " fill="#0E2035" transform="translate(1239,266)"/>
<path d="M0 0 C3.38651819 0.60473539 5.48128972 1.64378716 8 4 C9.03161608 5.98387708 10.03523618 7.98276656 11 10 C11.66 10.33 12.32 10.66 13 11 C13.81640625 13.21484375 13.81640625 13.21484375 14.5625 15.9375 C15.549513 19.55797321 15.549513 19.55797321 17 23 C17.09550067 24.66880601 17.12795219 26.34140369 17.12939453 28.01293945 C17.13254669 29.05774979 17.13569885 30.10256012 17.13894653 31.17903137 C17.1369223 32.31233383 17.13489807 33.44563629 17.1328125 34.61328125 C17.13376923 35.77498337 17.13472595 36.93668549 17.13571167 38.1335907 C17.13639329 40.59581557 17.13454027 43.05804223 17.13037109 45.52026367 C17.12503706 49.28633686 17.13030926 53.05228999 17.13671875 56.81835938 C17.13605768 59.2083336 17.13477592 61.59830774 17.1328125 63.98828125 C17.13483673 65.11551102 17.13686096 66.24274078 17.13894653 67.40412903 C17.13421829 68.98552925 17.13421829 68.98552925 17.12939453 70.59887695 C17.12859894 71.52328079 17.12780334 72.44768463 17.12698364 73.40010071 C16.79809941 80.13377015 16.79809941 80.13377015 14.3984375 82.73828125 C13.73070312 83.25777344 13.06296875 83.77726562 12.375 84.3125 C9.49041486 86.65971076 7.19437106 88.92641261 4.9375 91.875 C-1.79642704 99.80090952 -12.69925649 105.85547294 -23 107 C-26.5625 107.125 -26.5625 107.125 -29 107 C-29 107.66 -29 108.32 -29 109 C-31.31 109 -33.62 109 -36 109 C-34.71587256 106.17613682 -33.35790529 104.1990386 -31.1875 102 C-25.39471526 95.45472116 -22.09471341 86.14536929 -21.68359375 77.453125 C-21.64169922 76.60878906 -21.59980469 75.76445312 -21.55664062 74.89453125 C-21.51732422 74.02183594 -21.47800781 73.14914063 -21.4375 72.25 C-21.39431641 71.36183594 -21.35113281 70.47367187 -21.30664062 69.55859375 C-21.20086385 67.37254037 -21.09877454 65.18637911 -21 63 C-21.66 63 -22.32 63 -23 63 C-23.061875 61.906875 -23.12375 60.81375 -23.1875 59.6875 C-23.63473383 55.81376702 -24.90304996 52.86182959 -26.625 49.375 C-28.24488409 45.99477945 -29 44.29801242 -29 40.5 C-27.55299227 36.88248067 -26.08425346 35.58130564 -22.67578125 33.75390625 C-19.58242431 31.72628981 -17.7223436 29.52575796 -15.4375 26.625 C-14.69371094 25.68914062 -13.94992187 24.75328125 -13.18359375 23.7890625 C-12.46300781 22.86867188 -11.74242187 21.94828125 -11 21 C-10.30261719 20.195625 -9.60523438 19.39125 -8.88671875 18.5625 C-6.71551355 15.61361674 -5.60216397 12.8189763 -4.375 9.375 C-3.12082479 5.8840792 -2.06251931 3.09377896 0 0 Z " fill="#EC682C" transform="translate(1076,82)"/>
<path d="M0 0 C25.74 0 51.48 0 78 0 C78 12.21 78 24.42 78 37 C52.26 37 26.52 37 0 37 C0 24.79 0 12.58 0 0 Z " fill="#1DE0D1" transform="translate(745,271)"/>
<path d="M0 0 C0 8.58 0 17.16 0 26 C-3.96 26.66 -7.92 27.32 -12 28 C-18.3662873 31.04864462 -22.12678559 34.48902485 -25 41 C-26.25726457 45.77017607 -26.22238412 50.55680398 -26.31640625 55.45703125 C-26.33718735 56.35999435 -26.35796844 57.26295746 -26.37937927 58.19328308 C-26.4445528 61.06628097 -26.50360955 63.93936714 -26.5625 66.8125 C-26.60571586 68.76498294 -26.64933112 70.71745708 -26.69335938 72.66992188 C-26.80094968 77.44652556 -26.90026229 82.2232001 -27 87 C-35.25 87 -43.5 87 -52 87 C-52 58.95 -52 30.9 -52 2 C-43.75 2 -35.5 2 -27 2 C-26.67 6.29 -26.34 10.58 -26 15 C-25.01 13.618125 -24.02 12.23625 -23 10.8125 C-16.48573899 2.4219204 -10.46033305 0 0 0 Z " fill="#F7F8F9" transform="translate(740,512)"/>
<path d="M0 0 C8.25 0 16.5 0 25 0 C25 28.05 25 56.1 25 85 C16.75 85 8.5 85 0 85 C0 56.95 0 28.9 0 0 Z " fill="#F6F7F8" transform="translate(854,514)"/>
<path d="M0 0 C5.66172767 2.78137321 8.79766055 7.30374083 11.44921875 12.8984375 C13.9050578 20.29929183 12.81584815 28.30219734 9.65234375 35.3046875 C6.75405421 40.05348844 2.42735746 43.37920544 -2.6875 45.5 C-8.87319967 46.29782056 -14.28595634 45.76130938 -19.6875 42.5 C-25.55944367 37.17930002 -28.28823161 32.4433229 -28.93359375 24.453125 C-29.19325004 17.62337779 -28.99879193 12.01795089 -24.6875 6.5 C-17.43732173 -1.01932642 -10.11399253 -3.86108499 0 0 Z " fill="#102136" transform="translate(1567.6875,534.5)"/>
<path d="M0 0 C3.37936136 3.09355408 4.72083982 6.70219155 6.36328125 10.89453125 C6.67774704 11.67833664 6.99221283 12.46214203 7.31620789 13.2696991 C8.32224677 15.7811318 9.31775375 18.29657572 10.3125 20.8125 C11.29548346 23.28049322 12.28068007 25.74758949 13.26681519 28.21432495 C13.91201945 29.82835916 14.55601103 31.44287869 15.19876099 33.05789185 C17.66468149 39.23233584 20.27017984 45.33581757 22.95776367 51.41674805 C24 54 24 54 24 56 C8.82 56 -6.36 56 -22 56 C-19.94964678 49.16548926 -17.8137646 42.75863895 -15.05859375 36.23046875 C-14.69024918 35.34643875 -14.3219046 34.46240875 -13.94239807 33.55158997 C-12.77874366 30.76159214 -11.60831519 27.9744993 -10.4375 25.1875 C-9.64862395 23.30032435 -8.86020856 21.41295606 -8.07226562 19.52539062 C-6.96366967 16.86992754 -5.85442614 14.21475825 -4.74156189 11.56108093 C-3.130446 7.71901172 -1.52936475 3.87559943 0 0 Z " fill="#0E2237" transform="translate(633,238)"/>
<path d="M0 0 C4.92783804 3.91328315 7.56499599 7.30062412 8.30859375 13.5625 C8.49647358 18.57262882 8.44067347 22.35374176 6.3125 26.9375 C1.56575427 31.93407445 -2.81284757 35.88064899 -9.89453125 36.80859375 C-16.99767843 36.96685522 -21.65793416 36.202395 -27.0625 31.4375 C-32.16361816 26.06790193 -33.55480307 21.21322169 -33.37109375 13.9296875 C-32.57237858 7.47930421 -28.62176968 3.66287923 -23.84375 -0.3984375 C-17.25448959 -4.70457698 -6.44585119 -4.02598015 0 0 Z " fill="#102136" transform="translate(1053.0625,535.5625)"/>
<path d="M0 0 C5.83597458 4.28881563 9.63636403 10.19233771 12 17 C12.495 20.96 12.495 20.96 13 25 C-5.81 25 -24.62 25 -44 25 C-42.58128746 15.06901225 -39.16483984 6.61866132 -31.05859375 0.3359375 C-21.33542938 -5.97397183 -10.00730733 -5.76489328 0 0 Z " fill="#0E2439" transform="translate(1403,265)"/>
<path d="M0 0 C1 1 1 1 1.3125 4.6875 C1.25685013 9.12358984 -0.12881485 11.57052885 -3 15 C-8.00588595 19.67216022 -13.97795411 20.45980217 -20.59375 20.3203125 C-24.97437546 19.73717729 -27.6952173 17.58843111 -30.4375 14.25 C-31.32549176 10.69803296 -31.07629591 7.45511553 -30 4 C-22.85333283 -4.83929887 -9.99306787 -3.33102262 0 0 Z " fill="#122237" transform="translate(1320,564)"/>
<path d="M0 0 C1 1 1 1 1.3125 4.6875 C1.25685013 9.12358984 -0.12881485 11.57052885 -3 15 C-8.00588595 19.67216022 -13.97795411 20.45980217 -20.59375 20.3203125 C-24.97437546 19.73717729 -27.6952173 17.58843111 -30.4375 14.25 C-31.32549176 10.69803296 -31.07629591 7.45511553 -30 4 C-22.85333283 -4.83929887 -9.99306787 -3.33102262 0 0 Z " fill="#122238" transform="translate(644,564)"/>
<path d="M0 0 C8.25 0 16.5 0 25 0 C25 6.93 25 13.86 25 21 C16.75 21 8.5 21 0 21 C0 14.07 0 7.14 0 0 Z " fill="#FDFDFD" transform="translate(854,484)"/>
<path d="M0 0 C5.5172587 2.70847245 9.8168967 7.17839121 12 13 C12 14.65 12 16.3 12 18 C0.12 18 -11.76 18 -24 18 C-20.60803324 7.82409972 -20.60803324 7.82409972 -18.0625 5.0625 C-17.57910156 4.51722656 -17.09570312 3.97195313 -16.59765625 3.41015625 C-11.71256108 -0.90162701 -6.22294557 -0.73157996 0 0 Z " fill="#132339" transform="translate(541,532)"/>
<path d="M0 0 C3.38651819 0.60473539 5.48128972 1.64378716 8 4 C9.03161608 5.98387708 10.03523618 7.98276656 11 10 C11.66 10.33 12.32 10.66 13 11 C13.625 14.0625 13.625 14.0625 14 17 C12.5 15.625 12.5 15.625 11 14 C11 13.34 11 12.68 11 12 C10.01 11.67 9.02 11.34 8 11 C6.5 9 6.5 9 5 7 C4.01 6.67 3.02 6.34 2 6 C1.72027344 6.57492188 1.44054688 7.14984375 1.15234375 7.7421875 C0.0352139 9.93100463 -1.15757208 12.02767263 -2.4375 14.125 C-2.84871094 14.80820313 -3.25992187 15.49140625 -3.68359375 16.1953125 C-5 18 -5 18 -8 20 C-8.309375 20.99 -8.61875 21.98 -8.9375 23 C-10 26 -10 26 -12 27.0625 C-12.99 27.5265625 -12.99 27.5265625 -14 28 C-14.309375 28.804375 -14.61875 29.60875 -14.9375 30.4375 C-16.3165358 33.76340987 -17.89914716 34.26929144 -21 36 C-24.06307631 37.97966263 -24.06307631 37.97966263 -26 41 C-25.85602451 44.16746072 -24.95706848 46.99284733 -24 50 C-23.66013333 51.66534667 -23.32297514 53.33129513 -23 55 C-26.34323238 53.32838381 -26.94599713 49.94329107 -28.234375 46.578125 C-29.2030921 43.31611842 -29.17014211 41.19838843 -28 38 C-26.43009987 35.88063482 -25.00591025 35.00316869 -22.67578125 33.75390625 C-19.58242431 31.72628981 -17.7223436 29.52575796 -15.4375 26.625 C-14.69371094 25.68914062 -13.94992187 24.75328125 -13.18359375 23.7890625 C-12.46300781 22.86867188 -11.74242187 21.94828125 -11 21 C-10.30261719 20.195625 -9.60523438 19.39125 -8.88671875 18.5625 C-6.71551355 15.61361674 -5.60216397 12.8189763 -4.375 9.375 C-3.12082479 5.8840792 -2.06251931 3.09377896 0 0 Z " fill="#9B4B2B" transform="translate(1076,82)"/>
<path d="M0 0 C1.32 0 2.64 0 4 0 C5.03565785 1.30582947 6.03126968 2.64377755 7 4 C8.63631892 5.04892238 10.30485863 6.04906703 12 7 C15.85714286 9.57142857 15.85714286 9.57142857 17 13 C17.66 13.33 18.32 13.66 19 14 C19 14.66 19 15.32 19 16 C17.0625 15.1875 17.0625 15.1875 15 14 C14.67 13.01 14.34 12.02 14 11 C11.98491642 10.26676204 11.98491642 10.26676204 10 10 C10 9.34 10 8.68 10 8 C9.401875 7.71125 8.80375 7.4225 8.1875 7.125 C6 6 6 6 3 4 C3.02094727 4.66008057 3.04189453 5.32016113 3.06347656 6.00024414 C3.14715393 9.02083818 3.19882229 12.04118759 3.25 15.0625 C3.28351562 16.10083984 3.31703125 17.13917969 3.3515625 18.20898438 C3.43453319 24.74292593 2.84691683 28.661267 -1 34 C-1.93423645 30.98968256 -2.04449911 30.13349732 -1 27 C-0.84970012 24.93637009 -0.75155552 22.86876085 -0.68359375 20.80078125 C-0.64169922 19.59228516 -0.59980469 18.38378906 -0.55664062 17.13867188 C-0.51732422 15.87603516 -0.47800781 14.61339844 -0.4375 13.3125 C-0.39431641 12.03826172 -0.35113281 10.76402344 -0.30664062 9.45117188 C-0.2004514 6.30089148 -0.09840467 3.15053161 0 0 Z " fill="#8B462B" transform="translate(1016,7)"/>
<path d="M0 0 C0.33 0 0.66 0 1 0 C1.04898438 1.19496094 1.09796875 2.38992187 1.1484375 3.62109375 C1.68056539 15.431805 1.68056539 15.431805 4 27 C4.99 27 5.98 27 7 27 C8.4606285 29.64738916 9 30.89448334 9 34 C9.66 34 10.32 34 11 34 C12.25664978 36.90600261 13 38.79604584 13 42 C11.58376784 42.05447047 10.16691809 42.09300508 8.75 42.125 C7.96109375 42.14820313 7.1721875 42.17140625 6.359375 42.1953125 C3.76410928 41.98047262 2.2692782 41.2276423 0 40 C-1.99110401 39.61709538 -3.99100513 39.27395385 -6 39 C-6 38.34 -6 37.68 -6 37 C-7.2065625 36.814375 -7.2065625 36.814375 -8.4375 36.625 C-9.283125 36.41875 -10.12875 36.2125 -11 36 C-11.33 35.34 -11.66 34.68 -12 34 C-7.64106877 34.37097287 -4.34079876 35.18256525 -0.375 37.0625 C2.90856727 38.61728314 5.29828022 39.47764126 9 39 C7.38285319 34.77744999 5.69473224 31.56249732 2.90625 28 C-0.86505592 22.42311132 -0.69725402 17.48586686 -0.375 10.9375 C-0.34792969 9.88111328 -0.32085938 8.82472656 -0.29296875 7.73632812 C-0.2228971 5.15535574 -0.1247347 2.57880993 0 0 Z " fill="#A04D2C" transform="translate(998,149)"/>
<path d="M0 0 C1.98 0 3.96 0 6 0 C8.04745115 3.42456242 8.37174725 6.34360121 8.6328125 10.296875 C8.71660156 11.50214844 8.80039063 12.70742187 8.88671875 13.94921875 C8.96535156 15.20347656 9.04398438 16.45773438 9.125 17.75 C9.21136719 19.01972656 9.29773437 20.28945312 9.38671875 21.59765625 C9.59877276 24.73134331 9.8028956 27.86534294 10 31 C11.98 30.67 13.96 30.34 16 30 C15.67 30.99 15.34 31.98 15 33 C11.535 33.495 11.535 33.495 8 34 C7.91697632 33.11646851 7.91697632 33.11646851 7.83227539 32.21508789 C7.57646027 29.49748485 7.31948622 26.77999254 7.0625 24.0625 C6.97548828 23.13630859 6.88847656 22.21011719 6.79882812 21.25585938 C6.62345038 19.40464985 6.44329548 17.55388651 6.25830078 15.70361328 C6.08865302 13.92792401 5.94049385 12.15002493 5.81591797 10.37060547 C5.64531191 8.23653324 5.33389728 6.11468279 5 4 C4.01 3.34 3.02 2.68 2 2 C1.96261719 2.65226562 1.92523437 3.30453125 1.88671875 3.9765625 C1.48802654 9.27682361 0.93771538 13.41716401 -2 18 C-2.66 18.33 -3.32 18.66 -4 19 C-3.69255859 18.19949219 -3.69255859 18.19949219 -3.37890625 17.3828125 C-1.282843 11.58604428 -0.37189499 6.14267934 0 0 Z " fill="#A74F2C" transform="translate(1031,83)"/>
<path d="M0 0 C0.66 0.33 1.32 0.66 2 1 C0.10176107 6.7946241 -1.93956718 10.35950534 -6 15 C-8.39590207 18.4668497 -10.55767224 21.8941806 -12.125 25.8125 C-13.07223028 28.18057571 -14.00856166 29.42344464 -16 31 C-16.66 31 -17.32 31 -18 31 C-16.39154012 24.38308373 -14.60302836 20.15100793 -10 15 C-9.13421841 13.51849175 -8.30251861 12.0167097 -7.5 10.5 C-5.38467395 6.53124541 -2.99986968 3.34271193 0 0 Z " fill="#B35228" transform="translate(976,87)"/>
<path d="M0 0 C6.74525058 6.97009226 6.30487156 16.15134064 6.1875 25.3125 C6.18685547 26.28767578 6.18621094 27.26285156 6.18554688 28.26757812 C6.13121024 37.06407496 6.13121024 37.06407496 5 40 C3.515 40.495 3.515 40.495 2 41 C2.16371094 39.79472656 2.32742188 38.58945313 2.49609375 37.34765625 C3.19598736 31.04861376 3.10803918 24.76744583 3.0625 18.4375 C3.05798828 17.23802734 3.05347656 16.03855469 3.04882812 14.80273438 C3.03713769 11.86843641 3.02075138 8.93424551 3 6 C2.34 6 1.68 6 1 6 C0.67 4.02 0.34 2.04 0 0 Z " fill="#6E3C2B" transform="translate(1055,54)"/>
<path d="M0 0 C0.33 0 0.66 0 1 0 C1.01981934 0.5983667 1.03963867 1.1967334 1.06005859 1.81323242 C1.44940353 13.01281479 1.92357933 23.96901519 4 35 C4.33636325 36.99949265 4.67048406 38.99936751 5 41 C2.99907853 38.99907853 2.40728251 37.89689422 1.4375 35.3125 C1.18871094 34.66925781 0.93992187 34.02601563 0.68359375 33.36328125 C-1.07267243 27.29161817 -1.15633861 21.19999856 -1.125 14.9375 C-1.12886719 14.16083984 -1.13273438 13.38417969 -1.13671875 12.58398438 C-1.1294262 8.2777341 -0.85486782 4.24041577 0 0 Z " fill="#9A4C2B" transform="translate(957,118)"/>
<path d="M0 0 C2.40366156 2.25972973 4.27252095 4.64748059 6.125 7.375 C6.64320313 8.12523437 7.16140625 8.87546875 7.6953125 9.6484375 C9.07095964 12.12789731 9.5955759 14.20848731 10 17 C4.58461538 17.36923077 4.58461538 17.36923077 1.625 15.5 C1.08875 15.005 0.5525 14.51 0 14 C0.99 13.34 1.98 12.68 3 12 C2.67 11.67 2.34 11.34 2 11 C1.60545777 9.15400312 1.25823134 7.29774178 0.9375 5.4375 C0.76089844 4.42558594 0.58429687 3.41367188 0.40234375 2.37109375 C0.26957031 1.58863281 0.13679687 0.80617187 0 0 Z " fill="#E86629" transform="translate(998,172)"/>
<path d="M0 0 C0 3 0 3 -1.9375 5 C-2.618125 5.66 -3.29875 6.32 -4 7 C-4.33 7.99 -4.66 8.98 -5 10 C-5.66 10 -6.32 10 -7 10 C-7.12375 10.7425 -7.2475 11.485 -7.375 12.25 C-7.95486701 14.80141485 -8.73708739 16.7267573 -10 19 C-10.99 19 -11.98 19 -13 19 C-13.50361366 14.76964527 -13.20929985 13.29415114 -10.6875 9.75 C-8 7 -8 7 -5 5 C-4.67 4.01 -4.34 3.02 -4 2 C-1.9375 0.8125 -1.9375 0.8125 0 0 Z " fill="#CB5723" transform="translate(1014,120)"/>
<path d="M0 0 C0.33 0 0.66 0 1 0 C1.04898438 1.19496094 1.09796875 2.38992187 1.1484375 3.62109375 C1.68056539 15.431805 1.68056539 15.431805 4 27 C4.99 27 5.98 27 7 27 C8.4606285 29.64738916 9 30.89448334 9 34 C9.66 34 10.32 34 11 34 C10.67 34.99 10.34 35.98 10 37 C10 36.34 10 35.68 10 35 C9.01 34.67 8.02 34.34 7 34 C1.7468804 29.11808585 -0.14647184 24.14648022 -0.453125 17.15234375 C-0.51214049 11.42739795 -0.32779841 5.71521927 0 0 Z " fill="#89462B" transform="translate(998,149)"/>
<path d="M0 0 C4.3426839 0.50107891 6.83838724 3.17472902 10 6 C10.8971875 6.7115625 10.8971875 6.7115625 11.8125 7.4375 C13.58501326 9.76975429 13.68251759 12.14265831 14 15 C12.5 13.625 12.5 13.625 11 12 C11 11.34 11 10.68 11 10 C10.01 9.67 9.02 9.34 8 9 C6.5 7 6.5 7 5 5 C4.01 4.67 3.02 4.34 2 4 C1.71125 4.639375 1.4225 5.27875 1.125 5.9375 C0 8 0 8 -2 9 C-1.51421457 5.87709365 -1.0013988 3.00419641 0 0 Z " fill="#D05925" transform="translate(1076,84)"/>
<path d="M0 0 C0.33 0 0.66 0 1 0 C1.43478214 3.10558674 1.59797636 5.90961797 1 9 C-1.0150581 11.4998841 -3.31799353 13.25532743 -6 15 C-6 11.21286807 -4.73107406 9.16645599 -3 5.8125 C-2.443125 4.72582031 -1.88625 3.63914063 -1.3125 2.51953125 C-0.879375 1.68808594 -0.44625 0.85664062 0 0 Z " fill="#D55C26" transform="translate(1011,46)"/>
<path d="M0 0 C0.33 0 0.66 0 1 0 C0.85851011 1.6045556 0.71164314 3.20863767 0.5625 4.8125 C0.48128906 5.70582031 0.40007813 6.59914062 0.31640625 7.51953125 C0 10 0 10 -1 13 C-1.22325814 15.05893621 -1.40705759 17.12233653 -1.5625 19.1875 C-1.64628906 20.27417969 -1.73007812 21.36085937 -1.81640625 22.48046875 C-1.87699219 23.31191406 -1.93757812 24.14335937 -2 25 C-2.66 24.67 -3.32 24.34 -4 24 C-4.35076298 16.32218816 -3.92035533 10.12687751 -1 3 C-0.67 2.01 -0.34 1.02 0 0 Z " fill="#C55927" transform="translate(1000,136)"/>
<path d="M0 0 C0.33 0 0.66 0 1 0 C1.33 5.28 1.66 10.56 2 16 C3.98 15.67 5.96 15.34 8 15 C7.67 15.99 7.34 16.98 7 18 C4.69 18.33 2.38 18.66 0 19 C0 12.73 0 6.46 0 0 Z " fill="#B2542E" transform="translate(1039,98)"/>
<path d="M0 0 C0.66 0 1.32 0 2 0 C2 2.76337926 1.97639255 4.4654266 1 7 C-1.43667911 9.37486061 -4.11604403 11.20656041 -7 13 C-7 11.35 -7 9.7 -7 8 C-6.01 8 -5.02 8 -4 8 C-4 7.34 -4 6.68 -4 6 C-3.34 6 -2.68 6 -2 6 C-1.855625 5.195625 -1.71125 4.39125 -1.5625 3.5625 C-1 1 -1 1 0 0 Z " fill="#A34F29" transform="translate(1091,156)"/>
<path d="M0 0 C0.556875 0.70125 1.11375 1.4025 1.6875 2.125 C2.89341806 3.62424948 4.1057906 5.11987603 5.37890625 6.5625 C9 10.68910256 9 10.68910256 9 14 C9.66 14 10.32 14 11 14 C11 14.66 11 15.32 11 16 C11.66 16 12.32 16 13 16 C12.67 16.99 12.34 17.98 12 19 C0 5.68587896 0 5.68587896 0 0 Z " fill="#C7592A" transform="translate(962,155)"/>
<path d="M0 0 C3.08548483 6.17096966 3.18333221 10.57313267 3.1875 17.5 C3.19974609 18.57121094 3.21199219 19.64242187 3.22460938 20.74609375 C3.22654297 21.76832031 3.22847656 22.79054687 3.23046875 23.84375 C3.23457764 24.78412109 3.23868652 25.72449219 3.24291992 26.69335938 C3 29 3 29 1 31 C1.33 23.41 1.66 15.82 2 8 C1.34 8 0.68 8 0 8 C0 5.36 0 2.72 0 0 Z " fill="#9C4E2F" transform="translate(1053,137)"/>
<path d="M0 0 C0.99 0.33 1.98 0.66 3 1 C3 2.98 3 4.96 3 7 C-2.95930219 7.31364748 -6.70673117 6.80867326 -12 4 C-12.33 3.34 -12.66 2.68 -13 2 C-12.195625 2.309375 -11.39125 2.61875 -10.5625 2.9375 C-6.37750913 4.18565517 -2.33693899 4.6337696 2 5 C1.34 3.35 0.68 1.7 0 0 Z " fill="#3E2E31" transform="translate(1009,186)"/>
<path d="M0 0 C2.52560108 2.52560108 4.25901303 4.73048665 6.1875 7.6875 C6.71730469 8.49574219 7.24710938 9.30398437 7.79296875 10.13671875 C8.39044922 11.05904297 8.39044922 11.05904297 9 12 C8.67 12.66 8.34 13.32 8 14 C7.34 13.34 6.68 12.68 6 12 C4.68 11.67 3.36 11.34 2 11 C1.34 7.37 0.68 3.74 0 0 Z " fill="#D65D25" transform="translate(998,172)"/>
<path d="M0 0 C0.625 1.8125 0.625 1.8125 1 4 C-1.18416406 7.27624608 -2.66981539 8.03216364 -6 10 C-8.05480247 11.60999817 -10.02031845 13.29655308 -12 15 C-10.54189378 11.60534645 -8.66233272 9.47748287 -6 6.9375 C-3.62557202 4.66346144 -1.83652048 2.75478071 0 0 Z " fill="#B4502F" transform="translate(1061,108)"/>
<path d="M0 0 C0 3.54173775 -0.64451808 4.13812815 -2.8125 6.8125 C-5.34671388 10.0536577 -7.3036768 13.2303929 -9 17 C-9.66 17 -10.32 17 -11 17 C-9.91367588 14.74378837 -8.76654035 12.62646456 -7.4375 10.5 C-6.14826053 8.2578444 -5.46652072 6.51921187 -5 4 C-4.01 4 -3.02 4 -2 4 C-1.34 2.68 -0.68 1.36 0 0 Z " fill="#99492C" transform="translate(1026,103)"/>
<path d="M0 0 C0 3.16824279 -0.56653948 4.6056858 -1.875 7.4375 C-2.22304688 8.19933594 -2.57109375 8.96117188 -2.9296875 9.74609375 C-3.92644339 11.84510159 -4.95142353 13.92646365 -6 16 C-6.66 16 -7.32 16 -8 16 C-6.40639347 9.44418777 -4.73935838 4.86744914 0 0 Z " fill="#93492D" transform="translate(966,102)"/>
<path d="M0 0 C1.38012056 2.76024111 0.59705421 3.96959936 -0.3125 6.875 C-0.57675781 7.73867187 -0.84101562 8.60234375 -1.11328125 9.4921875 C-1.93475815 11.8154834 -2.69949152 13.9060405 -4 16 C-4.99 16.33 -5.98 16.66 -7 17 C-6.625 14.5625 -6.625 14.5625 -6 12 C-5.34 11.67 -4.68 11.34 -4 11 C-3.855625 9.906875 -3.71125 8.81375 -3.5625 7.6875 C-3.00822062 4.05389072 -2.42925049 2.64048966 0 0 Z " fill="#AA4F2B" transform="translate(1057,91)"/>
<path d="M0 0 C0.33 0 0.66 0 1 0 C1.54330269 6.65545792 0.77304004 10.45834744 -3 16 C-3.93423645 12.98968256 -4.04449911 12.13349732 -3 9 C-2.34 9 -1.68 9 -1 9 C-0.67 6.03 -0.34 3.06 0 0 Z " fill="#B2522A" transform="translate(1018,25)"/>
<path d="M0 0 C3.33161397 2.98696425 5.34826557 5.82719722 7 10 C6.6875 12.375 6.6875 12.375 6 14 C5.0234375 12.27473958 4.046875 10.54947917 3.0703125 8.82421875 C2.10571419 7.18017711 1.05732941 5.58599412 0 4 C0 2.68 0 1.36 0 0 Z " fill="#97492A" transform="translate(1048,40)"/>
<path d="M0 0 C2.79828356 0.38597015 3.8205884 0.80136573 5.75 2.9375 C7 5 7 5 7 7 C7.66 7 8.32 7 9 7 C9.33 8.65 9.66 10.3 10 12 C5.125 8.375 5.125 8.375 4 5 C2.68671343 3.64691687 1.35500919 2.31129922 0 1 C0 0.67 0 0.34 0 0 Z " fill="#57352C" transform="translate(1037,25)"/>
<path d="M0 0 C2.95417295 1.3715803 5.52711406 2.86820178 8 5 C8.33 5.99 8.66 6.98 9 8 C9.66 8.33 10.32 8.66 11 9 C11 9.66 11 10.32 11 11 C9.0625 10.1875 9.0625 10.1875 7 9 C6.67 8.01 6.34 7.02 6 6 C5.360625 5.87625 4.72125 5.7525 4.0625 5.625 C3.381875 5.41875 2.70125 5.2125 2 5 C0.75 2.4375 0.75 2.4375 0 0 Z " fill="#7D412A" transform="translate(1024,12)"/>
<path d="M0 0 C0.99 0.33 1.98 0.66 3 1 C2.43410156 1.43570313 1.86820313 1.87140625 1.28515625 2.3203125 C-3.48943573 6.07061318 -3.48943573 6.07061318 -6 11.4375 C-6 12.283125 -6 13.12875 -6 14 C-8 11 -8 11 -7.84765625 9.046875 C-6.79697154 6.50973773 -5.42738716 5.13134786 -3.4375 3.25 C-2.79683594 2.63640625 -2.15617187 2.0228125 -1.49609375 1.390625 C-1.00238281 0.93171875 -0.50867187 0.4728125 0 0 Z " fill="#DB5F29" transform="translate(1057,115)"/>
<path d="M0 0 C0 3 0 3 -2 6 C-1.01 6.33 -0.02 6.66 1 7 C1 7.66 1 8.32 1 9 C-1.31 9 -3.62 9 -6 9 C-4.47291037 5.56404834 -2.40072955 2.88087546 0 0 Z " fill="#BC552A" transform="translate(1046,182)"/>
<path d="M0 0 C0.99 0.33 1.98 0.66 3 1 C0.37347975 4.59930552 -1.93963643 7.07666989 -6 9 C-6.66 8.67 -7.32 8.34 -8 8 C-7.34 7.566875 -6.68 7.13375 -6 6.6875 C-5.01 5.8521875 -5.01 5.8521875 -4 5 C-4 4.01 -4 3.02 -4 2 C-2.68 2 -1.36 2 0 2 C0 1.34 0 0.68 0 0 Z " fill="#A5502A" transform="translate(1078,172)"/>
<path d="M0 0 C0.66 0 1.32 0 2 0 C3.91539047 4.96260257 5.60961435 9.86626838 7 15 C4.47138427 12.73946101 3.16143472 10.60099936 1.8125 7.5 C1.46832031 6.7265625 1.12414063 5.953125 0.76953125 5.15625 C0 3 0 3 0 0 Z " fill="#352A30" transform="translate(1052,44)"/>
<path d="M0 0 C1.65 0 3.3 0 5 0 C1.53928245 2.9517885 -1.76756692 5.28901641 -6 7 C-8.18359375 6.57421875 -8.18359375 6.57421875 -10 6 C-9.36191406 5.73445312 -8.72382812 5.46890625 -8.06640625 5.1953125 C-7.24011719 4.84210938 -6.41382813 4.48890625 -5.5625 4.125 C-4.73878906 3.77695313 -3.91507813 3.42890625 -3.06640625 3.0703125 C-0.84253285 2.1755063 -0.84253285 2.1755063 0 0 Z " fill="#A14D2A" transform="translate(1065,181)"/>
<path d="M0 0 C0 3 0 3 -1.9375 5 C-2.618125 5.66 -3.29875 6.32 -4 7 C-4.33 7.99 -4.66 8.98 -5 10 C-5.66 10 -6.32 10 -7 10 C-6.690625 9.236875 -6.38125 8.47375 -6.0625 7.6875 C-5.32106407 5.81210323 -4.63771783 3.91315348 -4 2 C-1.9375 0.8125 -1.9375 0.8125 0 0 Z " fill="#8C4529" transform="translate(1014,120)"/>
<path d="M0 0 C0.66 0 1.32 0 2 0 C3.4606285 2.64738916 4 3.89448334 4 7 C4.66 7 5.32 7 6 7 C5.67 7.99 5.34 8.98 5 10 C5 9.34 5 8.68 5 8 C4.01 7.67 3.02 7.34 2 7 C0 4 0 4 0 0 Z " fill="#4D332E" transform="translate(1003,176)"/>
<path d="M0 0 C0.33 0.99 0.66 1.98 1 3 C0.030625 3.61875 -0.93875 4.2375 -1.9375 4.875 C-5.02835362 6.65678846 -5.02835362 6.65678846 -6 9 C-6.66 9 -7.32 9 -8 9 C-6.4169423 4.7257442 -3.49431596 2.73468206 0 0 Z " fill="#BB5227" transform="translate(985,81)"/>
<path d="M0 0 C2.31 0.33 4.62 0.66 7 1 C7.33 1.99 7.66 2.98 8 4 C8.66 4.33 9.32 4.66 10 5 C8.68 5 7.36 5 6 5 C6 4.34 6 3.68 6 3 C5.195625 2.87625 4.39125 2.7525 3.5625 2.625 C2.716875 2.41875 1.87125 2.2125 1 2 C0.67 1.34 0.34 0.68 0 0 Z " fill="#8C482D" transform="translate(986,183)"/>
<path d="M0 0 C0.6875 1.6875 0.6875 1.6875 1 4 C-0.3125 6.75 -0.3125 6.75 -2 9 C-2.66 9 -3.32 9 -4 9 C-2.25 2.25 -2.25 2.25 0 0 Z " fill="#6C3C2A" transform="translate(1006,130)"/>
<path d="M0 0 C3.35111834 2.23407889 4.81553956 3.26215824 5.8125 7.25 C5.874375 8.1575 5.93625 9.065 6 10 C4.5 8.625 4.5 8.625 3 7 C3 6.34 3 5.68 3 5 C2.01 4.67 1.02 4.34 0 4 C0 2.68 0 1.36 0 0 Z " fill="#723F2F" transform="translate(1084,89)"/>
<path d="M0 0 C0.98120464 3.05263664 0.98120464 4.94736336 0 8 C-1.32 8.33 -2.64 8.66 -4 9 C-2.80100302 5.9168649 -1.52299523 2.93720508 0 0 Z " fill="#9B4A27" transform="translate(1011,46)"/>
<path d="M0 0 C0.33 0.66 0.66 1.32 1 2 C1.99 2.33 2.98 2.66 4 3 C5.6875 6.0625 5.6875 6.0625 7 9 C4.13998967 7.71792641 1.92960588 6.50848764 0 4 C0 2.68 0 1.36 0 0 Z " fill="#BF5324" transform="translate(1038,27)"/>
<path d="M0 0 C2.93200474 2.85276137 5.64315404 5.65079784 8 9 C5.04709864 7.62901008 2.39580248 6.22467373 0 4 C0 2.68 0 1.36 0 0 Z " fill="#5E372E" transform="translate(967,166)"/>
<path d="M0 0 C0.66 0 1.32 0 2 0 C0.63016497 3.16115776 0.0109362 3.9927092 -3 6 C-5.1875 5.625 -5.1875 5.625 -7 5 C-6.030625 4.360625 -5.06125 3.72125 -4.0625 3.0625 C-1.23963731 1.3034741 -1.23963731 1.3034741 0 0 Z " fill="#D85E27" transform="translate(1073,175)"/>
<path d="M0 0 C3.0916909 2.52956528 3.90931332 5.22454612 5 9 C4.34 9 3.68 9 3 9 C0.56839395 5.63316085 0 4.26649636 0 0 Z " fill="#C55A28" transform="translate(1088,98)"/>
<path d="M0 0 C0.6875 1.625 0.6875 1.625 1 4 C-1.33333333 9.66666667 -1.33333333 9.66666667 -4 11 C-3.52269162 9.5410574 -3.04308958 8.08286504 -2.5625 6.625 C-2.29566406 5.81289062 -2.02882813 5.00078125 -1.75390625 4.1640625 C-1 2 -1 2 0 0 Z " fill="#89492D" transform="translate(1031,91)"/>
<path d="M0 0 C1.70884005 1.62339805 3.37446717 3.29319053 5 5 C5 5.66 5 6.32 5 7 C3.68 7 2.36 7 1 7 C0.67 4.69 0.34 2.38 0 0 Z " fill="#5C3831" transform="translate(962,159)"/>
<path d="M0 0 C0.33 0 0.66 0 1 0 C1 1.65 1 3.3 1 5 C-0.65 5.66 -2.3 6.32 -4 7 C-2.79618552 4.50638429 -1.54571278 2.31856917 0 0 Z " fill="#C25628" transform="translate(1001,63)"/>
<path d="M0 0 C5.875 3.75 5.875 3.75 7 6 C4.03824877 5.38722388 2.61941217 4.74627478 0 3 C0 2.01 0 1.02 0 0 Z " fill="#CD551F" transform="translate(1031,21)"/>
</svg>
